# xmcd CD database file
#
# Track frame offsets:
#	150
#	15197
#	32840
#	49976
#	69451
#	79814
#	97872
#	113616
#	138317
#	157421
#	176318
#	185444
#	198699
#	215761
#	226817
#	237738
#
# Disc length: 3603 seconds
#
# Revision: 0
# Processed by: cddbd v1.5.1PL0 Copyright (c) Steve Scherf et al.
# Submitted via: CDex 1.51
#
DISCID=da0e1110
DTITLE=Various Artist - Don't Worry 'bout The Bear
DYEAR=2003
DGENRE=Blues
TTITLE0=Shake Your Boogie
TTITLE1=After You There Won't Be Nobody Else
TTITLE2=Crossroads
TTITLE3=Highway 51
TTITLE4=Honeydripper
TTITLE5=Seems Like A Million Years
TTITLE6=Ready For Eddie
TTITLE7=Don't Worry 'bout The Bear
TTITLE8=I'm a Mannish Boy
TTITLE9=Got Something To Tell You
TTITLE10=Sneaky Pete
TTITLE11=Homage To AA And PJ
TTITLE12=Texas Flood
TTITLE13=Walkin' In The Park
TTITLE14=12th Street Boogie
TTITLE15=Meet Me In The Alley
EXTD=YEAR: 2003
EXTT0=
EXTT1=
EXTT2=
EXTT3=
EXTT4=
EXTT5=
EXTT6=
EXTT7=
EXTT8=
EXTT9=
EXTT10=
EXTT11=
EXTT12=
EXTT13=
EXTT14=
EXTT15=
PLAYORDER=
